<svg width="16" height="15" viewBox="0 0 16 15" fill="none" xmlns="http://www.w3.org/2000/svg">
<path id="Vector" d="M8.07512 11.9125L8.00012 11.9875L7.91762 11.9125C4.35512 8.68 2.00012 6.5425 2.00012 4.375C2.00012 2.875 3.12512 1.75 4.62512 1.75C5.78012 1.75 6.90512 2.5 7.30262 3.52H8.69762C9.09512 2.5 10.2201 1.75 11.3751 1.75C12.8751 1.75 14.0001 2.875 14.0001 4.375C14.0001 6.5425 11.6451 8.68 8.07512 11.9125ZM11.3751 0.25C10.0701 0.25 8.81762 0.8575 8.00012 1.81C7.18262 0.8575 5.93012 0.25 4.62512 0.25C2.31512 0.25 0.500122 2.0575 0.500122 4.375C0.500122 7.2025 3.05012 9.52 6.91262 13.0225L8.00012 14.0125L9.08762 13.0225C12.9501 9.52 15.5001 7.2025 15.5001 4.375C15.5001 2.0575 13.6851 0.25 11.3751 0.25Z" fill="white"/>
</svg>
