<svg width="12" height="16" viewBox="0 0 12 16" fill="none" xmlns="http://www.w3.org/2000/svg">
<g id="book-variant">
<path id="Vector" d="M1.49976 2H5.24976V8L3.37476 6.875L1.49976 8V2ZM10.4998 0.5H1.49976C1.10193 0.5 0.7204 0.658035 0.439096 0.93934C0.157791 1.22064 -0.000244141 1.60218 -0.000244141 2V14C-0.000244141 14.3978 0.157791 14.7794 0.439096 15.0607C0.7204 15.342 1.10193 15.5 1.49976 15.5H10.4998C10.8976 15.5 11.2791 15.342 11.5604 15.0607C11.8417 14.7794 11.9998 14.3978 11.9998 14V2C11.9998 1.60218 11.8417 1.22064 11.5604 0.93934C11.2791 0.658035 10.8976 0.5 10.4998 0.5Z" fill="white"/>
</g>
</svg>
